Info :

General
Complete name                            : IPL 2012 - Match 1 - CSK vs MI - 720p HIGHLIGHTS.mp4
Format                                   : MPEG-4
Format profile                           : Base Media / Version 2
Codec ID                                 : mp42
File size                                : 145 MiB
Duration                                 : 7mn 45s
Overall bit rate mode                    : Variable
Overall bit rate                         : 2 606 Kbps
Encoded date                             : UTC 2012-04-03 22:04:13
Tagged date                              : UTC 2012-04-03 22:04:13
gsst                                     : 0
gstd                                     : 465628
gssd                                     : B4127C746HH1333587355875835
gshh                                     :

Video
ID                                       : 1
Format                                   : AVC
Format/Info                              : Advanced Video Codec
Format profile                           : High@L3.1
Format settings, CABAC                   : Yes
Format settings, ReFrames                : 1 frame
Codec ID                                 : avc1
Codec ID/Info                            : Advanced Video Coding
Duration                                 : 7mn 45s
Bit rate                                 : 2 452 Kbps
Maximum bit rate                         : 4 897 Kbps
Width                                    : 1 280 pixels
Height                                   : 720 pixels
Display aspect ratio                     : 16:9
Frame rate mode                          : Constant
Frame rate                               : 25.000 fps
Color space                              : YUV
Chroma subsampling                       : 4:2:0
Bit depth                                : 8 bits
Scan type                                : Progressive
Bits/(Pixel*Frame)                       : 0.106
Stream size                              : 136 MiB (94%)
Tagged date                              : UTC 2012-04-03 22:04:13

Audio
ID                                       : 2
Format                                   : AAC
Format/Info                              : Advanced Audio Codec
Format profile                           : LC
Codec ID                                 : 40
Duration                                 : 7mn 45s
Bit rate mode                            : Variable
Bit rate                                 : 152 Kbps
Maximum bit rate                         : 161 Kbps
Channel(s)                               : 2 channels
Channel positions                        : Front: L R
Sampling rate                            : 44.1 KHz
Compression mode                         : Lossy
Stream size                              : 8.43 MiB (6%)
Title                                    : IsoMedia File Produced by Google, 5-11-2011
Encoded date                             : UTC 2012-04-03 22:04:13
Tagged date                              : UTC 2012-04-03 22:04:13


Screens :
 
http://46.imagebam.com/download/RIztdpUU3lfQAdSy8fp_Ew/18329/183285407/IPL%202012%20-%20Match%201%20-%20CSK%20vs%20MI%20-%20720p%20HIGHLIGHTS%20%5BExD%5D_s.jpg